<?xml version="1.0" encoding="utf-8"?>
<!-- Generator: Adobe Illustrator 20.0.0, SVG Export Plug-In . SVG Version: 6.00 Build 0)  -->
<svg version="1.1" id="Ebene_1" xmlns="http://www.w3.org/2000/svg" xmlns:xlink="http://www.w3.org/1999/xlink" x="0px" y="0px"
	 viewBox="0 0 100 100" enable-background="new 0 0 100 100" xml:space="preserve">
<g>
	<path d="M88.9,69.4c-1.8,0-3.2,1.5-3.2,3.2v3.2h-13V50c0-17.9-14.5-32.4-32.4-32.4S7.9,32.1,7.9,50s14.5,32.4,32.4,32.4h48.6
		c1.8,0,3.2-1.5,3.2-3.2v-6.5C92.1,70.9,90.7,69.4,88.9,69.4z M40.3,43.5c3.6,0,6.5,2.9,6.5,6.5s-2.9,6.5-6.5,6.5s-6.5-2.9-6.5-6.5
		S36.7,43.5,40.3,43.5z"/>
</g>
</svg>
